<?xml version="1.0" standalone="no"?>
<!DOCTYPE svg PUBLIC "-//W3C//DTD SVG 20010904//EN"
 "http://www.w3.org/TR/2001/REC-SVG-20010904/DTD/svg10.dtd">
<svg version="1.0" xmlns="http://www.w3.org/2000/svg"
 width="512.000000pt" height="512.000000pt" viewBox="0 0 512.000000 512.000000"
 preserveAspectRatio="xMidYMid meet">

<g transform="translate(0.000000,512.000000) scale(0.100000,-0.100000)"
fill="#000000" stroke="none">
<path d="M2307 5069 c-495 -41 -1007 -249 -1388 -564 -44 -37 -86 -65 -92 -62
-7 2 -108 66 -226 141 -270 173 -263 169 -323 164 -82 -8 -138 -64 -146 -146
-2 -29 1 -59 8 -73 7 -13 82 -133 166 -266 85 -133 154 -244 154 -247 0 -3
-25 -42 -56 -88 -30 -46 -92 -157 -138 -248 -126 -253 -207 -517 -248 -810
-17 -123 -17 -495 1 -620 65 -474 259 -926 551 -1286 86 -105 255 -273 360
-358 653 -523 1496 -693 2297 -462 151 44 194 64 211 99 16 34 0 76 -38 94
-22 10 -43 7 -148 -27 -252 -81 -468 -114 -737 -113 -458 1 -864 117 -1254
358 -252 156 -531 424 -699 672 -204 301 -342 668 -393 1043 -17 124 -17 459
0 580 37 275 110 517 226 755 47 97 145 265 154 265 3 0 34 -44 68 -97 l61
-97 -58 -110 c-332 -627 -334 -1381 -5 -2004 408 -771 1243 -1225 2101 -1141
498 48 938 251 1298 599 183 177 313 355 430 591 301 603 297 1307 -9 1919
-55 109 -152 264 -213 339 l-35 43 209 209 c224 223 240 233 284 189 37 -37
26 -56 -105 -190 -104 -107 -125 -134 -125 -159 0 -20 21 -62 60 -123 77 -118
188 -342 235 -477 107 -302 151 -613 134 -938 -42 -779 -482 -1504 -1152
-1895 -61 -37 -122 -75 -134 -87 -47 -42 -12 -121 52 -121 29 0 109 41 230
118 272 174 549 446 734 720 440 654 546 1485 286 2232 -53 151 -136 329 -209
450 l-64 105 36 38 36 37 70 -70 70 -70 -32 -33 c-58 -60 -37 -137 39 -137 31
0 48 13 157 123 134 136 144 156 97 202 -34 35 -68 32 -113 -10 l-38 -34 -69
69 -68 69 21 50 c36 81 25 159 -31 227 -59 71 -167 94 -256 53 l-45 -20 -50
50 -49 49 19 39 c13 26 19 59 19 104 0 55 -5 72 -28 107 -39 59 -96 94 -163
100 -86 7 -125 -14 -238 -127 l-99 -99 -89 54 c-447 271 -984 397 -1511 353z
m381 -149 c397 -31 762 -151 1102 -364 58 -36 116 -66 129 -66 17 0 60 36 151
125 136 134 159 146 200 105 44 -44 34 -59 -187 -282 l-208 -209 -80 59 c-398
290 -880 439 -1355 418 -443 -19 -828 -152 -1188 -410 l-92 -67 -95 61 -95 62
43 35 c253 212 609 390 947 472 238 59 485 79 728 61z m-1927 -616 c248 -158
470 -301 492 -318 39 -30 104 -132 92 -144 -3 -3 -38 26 -78 65 -87 85 -119
103 -190 103 -69 0 -132 -32 -172 -88 -23 -34 -30 -56 -33 -106 -5 -81 9 -110
101 -203 55 -57 67 -73 51 -73 -37 0 -111 57 -152 117 -69 103 -583 913 -589
930 -5 12 -2 15 9 10 9 -3 220 -135 469 -293z m1934 246 c590 -56 1110 -355
1458 -841 87 -121 213 -372 260 -518 123 -376 135 -766 36 -1141 -193 -729
-787 -1292 -1526 -1445 -798 -166 -1615 172 -2071 855 -384 576 -437 1333
-137 1959 l55 114 50 -47 c28 -26 76 -59 108 -74 50 -23 72 -27 169 -28 102
-2 115 -5 145 -27 81 -60 222 -113 262 -97 27 10 56 47 56 71 0 30 -40 68 -83
80 -92 24 -159 71 -305 213 -78 77 -145 150 -148 163 -9 33 20 73 53 73 20 0
59 -33 173 -145 183 -181 218 -200 360 -200 145 0 174 17 385 225 208 205 252
231 396 238 134 7 234 -33 324 -129 87 -93 127 -223 106 -345 -20 -112 -59
-173 -200 -316 -107 -109 -131 -128 -157 -128 -38 0 -54 16 -54 54 0 25 21 51
124 156 69 69 134 145 146 170 54 105 30 251 -54 335 -63 62 -125 88 -210 88
-114 0 -143 -18 -342 -213 -165 -163 -177 -173 -267 -215 -52 -24 -97 -51
-101 -60 -12 -32 -6 -72 14 -90 33 -30 80 -23 177 25 80 39 103 58 263 216
109 107 186 175 203 180 119 29 221 -67 188 -178 -10 -32 -43 -72 -146 -177
-132 -136 -155 -170 -155 -236 0 -74 70 -173 136 -195 53 -18 127 -14 171 8
50 26 302 283 338 346 157 269 82 596 -175 769 -158 107 -398 117 -575 24 -43
-23 -109 -79 -235 -203 -195 -191 -229 -212 -320 -201 -90 11 -95 17 -95 132
-1 92 -3 105 -33 167 -23 48 -51 83 -96 125 l-64 58 67 48 c365 265 866 400
1326 357z m1545 -375 l-150 -150 -52 53 -53 52 150 150 150 150 52 -52 53 -53
-150 -150z"/>
<path d="M3229 3572 c-107 -56 -150 -189 -96 -296 l25 -48 -20 -40 c-47 -89
-32 -195 37 -264 23 -23 59 -47 79 -54 56 -18 155 -9 192 17 l31 22 48 -25
c113 -57 248 -14 306 98 29 56 26 151 -6 206 l-25 43 23 31 c19 25 22 43 22
112 0 73 -3 87 -28 124 -15 23 -46 54 -69 69 -35 24 -52 28 -112 28 -54 0 -81
-5 -112 -22 l-42 -21 -48 24 c-67 34 -135 33 -205 -4z m135 -130 c7 -11 -88
-104 -97 -96 -15 15 -6 56 18 79 23 24 69 34 79 17z m314 -12 c14 -13 22 -33
22 -53 0 -28 -21 -52 -167 -199 -141 -141 -172 -168 -197 -168 -40 0 -76 35
-76 74 0 25 25 55 168 198 143 143 173 168 198 168 17 0 40 -9 52 -20z m22
-350 c0 -17 -9 -39 -20 -50 -19 -19 -80 -29 -80 -13 0 10 82 93 92 93 4 0 8
-13 8 -30z"/>
<path d="M2465 2801 c-119 -54 -167 -195 -105 -312 l22 -43 -24 -40 c-34 -61
-32 -155 5 -219 42 -71 94 -101 181 -105 59 -3 78 0 115 20 l44 24 47 -24
c168 -83 364 67 321 246 -7 26 -20 58 -30 71 -18 24 -18 25 8 74 99 192 -102
398 -295 302 l-50 -25 -48 25 c-60 30 -133 33 -191 6z m429 -152 c18 -14 26
-30 26 -53 0 -28 -20 -52 -168 -199 -179 -178 -195 -187 -243 -149 -15 13 -22
30 -22 52 0 28 19 51 169 201 110 109 177 169 191 169 11 0 32 -9 47 -21z"/>
<path d="M3240 2793 c-79 -42 -113 -94 -118 -181 -3 -56 1 -75 21 -114 l24
-48 -23 -47 c-42 -83 -28 -191 34 -256 68 -72 187 -90 270 -42 43 25 44 25 70
6 37 -25 65 -33 123 -33 166 2 272 179 195 324 l-24 46 25 48 c20 40 24 60 21
110 -5 86 -44 148 -118 187 -48 25 -63 28 -117 24 -39 -3 -75 -13 -97 -26
l-34 -22 -43 23 c-24 12 -67 24 -98 26 -47 3 -65 -1 -111 -25z m445 -148 c49
-48 40 -64 -143 -247 -182 -182 -200 -193 -249 -146 -46 43 -36 60 150 245
185 185 198 193 242 148z"/>
<path d="M1706 2026 c-138 -51 -193 -198 -122 -322 23 -40 23 -42 5 -65 -25
-34 -42 -111 -34 -158 25 -147 197 -232 325 -161 l45 26 40 -23 c177 -100 385
72 321 265 -10 28 -24 56 -31 62 -13 11 -12 16 4 39 60 86 46 218 -31 287 -68
63 -177 78 -257 36 l-43 -23 -46 22 c-57 28 -125 33 -176 15z m416 -163 c11
-10 18 -30 18 -52 0 -33 -13 -49 -163 -198 -146 -145 -167 -163 -197 -163 -45
0 -70 25 -70 69 0 32 13 49 163 198 146 147 166 163 197 163 18 0 42 -7 52
-17z"/>
<path d="M2486 2028 c-24 -7 -58 -29 -86 -57 -75 -75 -89 -166 -41 -265 l22
-44 -21 -35 c-33 -55 -37 -133 -11 -193 12 -27 32 -59 44 -72 65 -70 184 -88
268 -41 45 26 47 26 70 8 74 -57 206 -42 279 31 71 71 85 179 36 266 l-22 39
25 44 c37 67 35 153 -5 218 -66 107 -197 142 -303 82 l-37 -21 -43 23 c-50 26
-119 33 -175 17z m416 -165 c10 -9 18 -30 18 -47 0 -26 -23 -54 -167 -198
-145 -145 -172 -168 -199 -168 -30 0 -55 19 -66 51 -12 32 24 78 174 227 137
135 158 152 188 152 18 0 42 -7 52 -17z"/>
<path d="M3261 2027 c-128 -49 -186 -192 -126 -313 l25 -50 -25 -48 c-76 -150
30 -319 200 -321 48 0 69 6 106 27 41 24 48 26 59 13 7 -8 38 -22 68 -31 145
-42 282 62 282 213 0 44 -6 72 -23 104 l-24 44 24 45 c21 38 24 56 21 116 -4
87 -34 139 -105 181 -64 38 -158 39 -219 4 l-41 -23 -43 22 c-52 26 -133 34
-179 17z m423 -169 c34 -48 24 -63 -151 -240 -147 -148 -171 -168 -199 -168
-36 0 -74 38 -74 73 0 13 60 81 167 189 157 157 170 168 205 168 27 0 41 -6
52 -22z"/>
</g>
</svg>
