<svg id="Grupo_1" data-name="Grupo 1" xmlns="http://www.w3.org/2000/svg" width="107.861" height="30.81" viewBox="0 0 107.861 30.81">
  <path id="Trazado_1" data-name="Trazado 1" d="M936.563,532.958a7.872,7.872,0,0,0,.219-1.279.292.292,0,0,0-.451-.236c.027-.479.046-.958.059-1.433a.8.8,0,0,0-.411-.855.545.545,0,0,0-.39,0,.318.318,0,0,0-.267.069,1.127,1.127,0,0,0-.63.3c-.189.169-.339.372-.543.524a6.293,6.293,0,0,1-.853.5,2.882,2.882,0,0,0-1.222,1.225,2.615,2.615,0,0,0-.227,1.6,7.447,7.447,0,0,1,.078,1.845,30.88,30.88,0,0,0-.281,4.122c0,1.49-.044,2.985.032,4.473s.27,2.948.364,4.425a6.291,6.291,0,0,1-.19,2.033,2.131,2.131,0,0,1-.328.8,1.221,1.221,0,0,1-.773.36c-.622.112-1.257.19-1.881.292a4.132,4.132,0,0,1-2.032-.123,8.232,8.232,0,0,1-3.408-2.157,2.459,2.459,0,0,1-.635-1.656c-.036-.705.037-1.4-.045-2.107-.167-1.433-.482-2.84-.616-4.281-.136-1.46-.053-2.938-.069-4.4-.008-.745-.034-1.491.01-2.235s.148-1.46.259-2.185c.048-.31.083-.618.114-.929a3.667,3.667,0,0,0,.134-.851c-.084-.528-.671-.437-1.04-.327-.445.132-.878.293-1.31.458a.2.2,0,0,0-.027,0,.851.851,0,0,0-.265.111l-.265.1a.3.3,0,0,0-.182.2l-.013.008a3.524,3.524,0,0,1-1.156.19c-.639.1-.8.736-.778,1.306.018.417.109.817.107,1.239,0,.49,0,.98,0,1.47,0,.911.02,1.825,0,2.736a5.854,5.854,0,0,0,.062,1.11c.063.39.035.778.091,1.169.127.874-.013,1.752.059,2.63.069.842.322,1.653.322,2.5,0,.935,0,1.87,0,2.8,0,.387-.036.778,0,1.165a9.437,9.437,0,0,0,.305,1.174,6.05,6.05,0,0,0,1.165,2.142c.02.028.044.053.066.079.176.293.329.6.5.9a3.447,3.447,0,0,0,.406.544c.112.186.232.367.362.542a7.8,7.8,0,0,0,1.778,1.69,10.537,10.537,0,0,0,1.41.829l.19.105a8.514,8.514,0,0,0,1.668.667,6.376,6.376,0,0,0,1.3.3l.05.01v0c.025,0,.05.009.076.011a.288.288,0,0,0,.283-.358c.128.013.256.025.386.025a.2.2,0,0,0,.057-.01,1.743,1.743,0,0,0,.185.009,6.041,6.041,0,0,0,1.207-.268,5.491,5.491,0,0,0,1.054-.4c.372-.179.7-.44,1.08-.6a2.4,2.4,0,0,0,.856-.616,4.048,4.048,0,0,1,.567-.378,4.94,4.94,0,0,0,.375-.347c.147-.127.328-.213.479-.335.187-.151.349-.33.528-.49a2.126,2.126,0,0,0,.678-.814,3.6,3.6,0,0,0,.167-.961.321.321,0,0,0,.376-.283c.142-1.551.2-3.108.211-4.666,0-.794.051-1.607-.016-2.4-.031-.366-.094-.729-.094-1.1s.056-.747.085-1.12c.124-1.557.172-3.125.226-4.685a23.158,23.158,0,0,1,.158-2.423,20.594,20.594,0,0,0,.267-2.178,4.189,4.189,0,0,0-.08-.872C936.516,533.243,936.536,533.1,936.563,532.958Z" transform="translate(-889.941 -528.679)" fill="#d5c095"/>
  <path id="Trazado_2" data-name="Trazado 2" d="M1037.494,555.243c-.2-.466-.435-.907-.674-1.354-.007-.013-.012-.027-.019-.04-.114-.434-.341-.832-.471-1.267a15.088,15.088,0,0,1-.364-1.752,28.437,28.437,0,0,0-1.16-3.726c-.389-1.217-.715-2.454-1.187-3.643-.348-.876-.617-1.771-.906-2.663q-.209-.988-.415-1.977a.254.254,0,0,0-.322-.2,1.947,1.947,0,0,0-.078-.393,8.106,8.106,0,0,1-.285-.8c-.064-.307-.05-.626-.092-.936a5.606,5.606,0,0,0-.208-.847c-.177-.6-.287-1.214-.489-1.8-.21-.607-.447-1.207-.665-1.812-.224-.621-.484-1.224-.678-1.855a7.573,7.573,0,0,0-.318-.845,4.149,4.149,0,0,0-.28-.7.305.305,0,0,0-.337-.134c-.344.124-.478.49-.592.808-.164.457-.32.919-.472,1.38a29.27,29.27,0,0,1-1.544,3.814,14.056,14.056,0,0,0-.685,1.772c-.212.629-.49,1.227-.73,1.845-.5,1.282-.771,2.631-1.395,3.866a11.014,11.014,0,0,0-.761,1.744,13.3,13.3,0,0,1-.659,1.826c-.56,1.188-.991,2.42-1.458,3.646-.478,1.255-.828,2.561-1.313,3.814a7.05,7.05,0,0,1-.413.751c-.155.291-.221.622-.4.9-.291.458-.773.771-.809,1.354-.029.477-.3,1.056.222,1.359a2.3,2.3,0,0,0,.773.233,2.567,2.567,0,0,1,.846.148,12.133,12.133,0,0,0,1.381.875c.509.185.793-.314.749-.757a.316.316,0,0,0-.034-.112,3.387,3.387,0,0,0,.457-.969c.208-.513.434-1.017.628-1.537.763-2.04,1.85-3.932,2.721-5.925.192-.441.431-.859.624-1.3.108-.244.186-.358.465-.381a6.644,6.644,0,0,1,.785.032,9.884,9.884,0,0,0,1.557,0c.525-.066,1.083-.015,1.6-.124.217-.045.309-.152.449.061a4.259,4.259,0,0,1,.28.686,11.767,11.767,0,0,1,.58,1.52,22.13,22.13,0,0,0,1.065,3.2c.453,1.039.562,2.184,1.007,3.226.224.524.353,1.419,1,1.59.4.105.681-.157,1.033-.285.548-.2,1.09-.427,1.651-.589.3-.087.623-.161.716-.506C1037.983,556.04,1037.649,555.6,1037.494,555.243Zm-6.573-11.712c-.188.167-.4.116-.63.133-.38.029-.739.151-1.126.161s-.76-.014-1.14-.017a.276.276,0,0,1-.223-.1c-.137.014-.278.028-.426.03-.258.005-.545-.022-.65-.3s.086-.55.172-.794a7.117,7.117,0,0,0,.38-1.124,3.391,3.391,0,0,1,.126-.579c.061-.166.167-.312.217-.482.088-.3.095-.65.157-.961.076-.378.185-.747.28-1.12.081-.316.11-.65.2-.962a.915.915,0,0,1,1.2-.579c.577.192.7,1.007.731,1.53.044.7.176,1.4.27,2.1a9.712,9.712,0,0,0,.5,2.322C1031.062,543.039,1031.165,543.314,1030.921,543.53Z" transform="translate(-930.033 -528.42)" fill="#d5c095"/>
  <path id="Trazado_3" data-name="Trazado 3" d="M988.082,555.708c-.078-.567-.127-1.14-.246-1.7a9.515,9.515,0,0,0-.491-1.452c-.186-.484-.267-.993-.441-1.481-.218-.613-.469-1.212-.682-1.827a9.714,9.714,0,0,0-.668-1.646c-.306-.542-.643-1.075-1-1.585a3.265,3.265,0,0,1-.717-1.319c.257-.158.511-.321.747-.5q.283-.212.544-.441a1.974,1.974,0,0,1,.063-.214,2.024,2.024,0,0,1,.493-.775,2.9,2.9,0,0,1,.421-.32c.256-.462.533-.911.778-1.381a11.564,11.564,0,0,0,.741-1.907,8.475,8.475,0,0,0,.445-2.074c.072-1.406-.674-2.584-1.165-3.843a5.139,5.139,0,0,0-.881-1.773c-.2-.215-.459-.375-.681-.571a5.351,5.351,0,0,0-.723-.591,5.027,5.027,0,0,0-.714-.341,3.182,3.182,0,0,0-.918-.319c-.684-.065-1.39-.119-2.079-.115-.31,0-.621.032-.93.011-.374-.025-.739-.145-1.114-.185-.725-.078-1.45-.024-2.177-.035-.708-.011-1.383-.227-2.1-.213a3.79,3.79,0,0,0-1.554.322c-.083,1.166-.206,2.328-.322,3.491.016,1.225.055,2.449.078,3.673.009.029.011.057.021.085a5.781,5.781,0,0,1,.131,1.963c-.01.719-.051,1.441-.011,2.159.019.337.117.661.129,1s-.011.689-.009,1.034a17.662,17.662,0,0,1-.182,2.206c-.084.72-.039,1.45-.11,2.172-.076.777-.132,1.553-.155,2.333-.047,1.541,0,3.082.055,4.622q.023.683.045,1.365a4.178,4.178,0,0,0-.076.647,9.514,9.514,0,0,1-.056,1.026,1.4,1.4,0,0,0,.471,1.345c.455.344,1.022.113,1.534.211.479.092.955.348,1.438.4.565.055.588-.441.647-.866.1-.739.051-1.488.153-2.229.1-.716.263-1.42.344-2.14a18.677,18.677,0,0,0,.082-2.314c-.008-.711.111-1.407.12-2.117,0-.358.02-.715.018-1.072,0-.188,0-.38-.018-.568-.011-.113-.1-.318-.066-.424a.444.444,0,0,1,.234-.226,1.5,1.5,0,0,1,.446-.736,4.11,4.11,0,0,1,2.071-.715.61.61,0,0,1,.735.417c.029.129.045.26.068.39q.624,1.11,1.315,2.181a6.591,6.591,0,0,1,.759,1.363c.172.491.27,1,.428,1.5a8.1,8.1,0,0,0,.577,1.352c.227.423.584.729.824,1.134a12.046,12.046,0,0,1,.684,1.494,9.519,9.519,0,0,1,.582,1.579c.042.186.059.572.118.953a15.629,15.629,0,0,0,2.208-1C988.309,556.643,988.148,556.175,988.082,555.708Zm-4.982-16.38a3.019,3.019,0,0,1-.912.885,4.158,4.158,0,0,1-1.126.735,9.149,9.149,0,0,1-1.224.4,9.557,9.557,0,0,1-1.458.249c-.268.007-.539-.012-.807-.011s-.5-.08-.751-.078a.3.3,0,0,1-.034-.592.27.27,0,0,1-.043-.155c.043-1.315.158-2.627.152-3.944,0-.628-.032-1.257,0-1.884.033-.612.13-1.215.143-1.829.005-.257,0-.509.029-.764a5.9,5.9,0,0,1,.068-.685c.1-.4.451-.444.79-.514a2.618,2.618,0,0,1,.823-.1c.206.02.411.056.617.077a4.422,4.422,0,0,1,1.28.286,5.672,5.672,0,0,1,2.3,1.432,7.762,7.762,0,0,1,1.149,2.271,3.532,3.532,0,0,1,.188,1.488,2.647,2.647,0,0,1-.387,1.226C983.627,538.321,983.4,538.842,983.1,539.327Z" transform="translate(-912.071 -528.676)" fill="#d5c095"/>
  <path id="Trazado_4" data-name="Trazado 4" d="M884.663,535.42a5.172,5.172,0,0,0-.157-1.3,9.994,9.994,0,0,0-.458-1.214,3.3,3.3,0,0,0-.634-1c-.272-.3-.576-.58-.869-.864a3.692,3.692,0,0,1-.478-.515,1.915,1.915,0,0,0-.371-.438,4.9,4.9,0,0,0-1.047-.564,2.619,2.619,0,0,0-1.055-.741,5.86,5.86,0,0,0-.8-.219c-.312-.063-.619-.043-.931-.085a14.819,14.819,0,0,0-2.016-.08,11.839,11.839,0,0,0-2.056.06c-.308.054-.607.123-.917.158a.751.751,0,0,0-.5.185c-.353.368-.236,1.1-.219,1.554.026.72.013,1.444.017,2.166a38.8,38.8,0,0,1-.165,4.315,33.8,33.8,0,0,0-.029,4.305c.029,1.426-.178,2.808-.28,4.225-.105,1.447-.115,2.9-.1,4.349.012,1.422.091,2.855.048,4.275-.009.286-.079.563-.105.847-.029.323-.047.641-.087.965a3.29,3.29,0,0,0,.012,1.511.81.81,0,0,0,.477.436c.27.111.539.225.81.334a14.156,14.156,0,0,1,1.606.747c.287.161.645.426,1,.347.49-.111.4-.69.321-1.053a3.853,3.853,0,0,1-.072-.75.322.322,0,0,0,.339-.287,37.943,37.943,0,0,0,.126-4.324c-.009-.715-.008-1.43-.022-2.144-.005-.307-.03-.614-.033-.921a8.141,8.141,0,0,1,.1-1.033c.073-.616-.013-1.231.032-1.845.04-.553.61-.532,1.039-.634a9.883,9.883,0,0,0,3.556-1.8,9.548,9.548,0,0,0,2.367-2.624c.152-.246.356-.46.495-.715a7.255,7.255,0,0,0,.372-.89,7.763,7.763,0,0,0,.493-1.831,10.232,10.232,0,0,0,.072-1.826C884.574,536.139,884.655,535.786,884.663,535.42ZM881.9,537.4a5.555,5.555,0,0,1-2.04,2.637c-.481.315-.993.578-1.477.886-.223.142-.467.208-.695.333-.2.111-.377.3-.617.327a1.255,1.255,0,0,1-1-.432c-.255-.412-.044-1.074.028-1.509.222-1.352.386-2.738.485-4.1a13.915,13.915,0,0,0,.048-2.04c-.048-.64-.128-1.292-.133-1.934a.3.3,0,0,1,.557-.153c.057-.25.2-.459.519-.4a2.142,2.142,0,0,1,.682.355c.259.164.512.338.762.515a8.575,8.575,0,0,1,2.428,2.282A3.773,3.773,0,0,1,881.9,537.4Z" transform="translate(-871.37 -528.383)" fill="#d5c095"/>
</svg>
